# AST/ASF file generated using VICON BodyLanguage
# -----------------------------------------------
:version 1.10
:name VICON
:units
  mass 1.0
  length 0.45
  angle deg
:documentation
   .ast/.asf automatically generated from VICON data using
   VICON BodyBuilder and BodyLanguage model FoxedUp or BRILLIANT.MOD
:root
   order TX TY TZ RX RY RZ
   axis XYZ
   position 0 0 0  
   orientation 0 0 0 
:bonedata
  begin
     id 1 
     name lhipjoint
     direction 0.710188 -0.616876 0.339259 
     length 2.5669 
     axis 0 0 0  XYZ
  end
  begin
     id 2 
     name lfemur
     direction 0.34202 -0.939693 0  
     length 7.12796  
     axis 0 0 20  XYZ
    dof rx ry rz
    limits (-160.0 20.0)
           (-70.0 70.0)
           (-60.0 70.0)
  end
  begin
     id 3 
     name ltibia
     direction 0.34202 -0.939693 0   
     length 7.58108   
     axis 0 0 20   XYZ
    dof rx
    limits (-10.0 170.0)
  end
  begin
     id 4 
     name lfoot
     direction 0.0669471 -0.183936 0.980656   
     length 2.17365   
     axis -90 7.62852e-016 20   XYZ
    dof rx rz
    limits (-45.0 90.0)
           (-70.0 20.0)
  end
  begin
     id 5 
     name ltoes
     direction 1.53508e-011 -4.21705e-011 1   
     length 1.09427   
     axis -90 7.62852e-016 20   XYZ
    dof rx
    limits (-90.0 20.0)
  end
  begin
     id 6 
     name rhipjoint
     direction -0.700191 -0.625589 0.34405   
     length 2.53115  
     axis 0 0 0  XYZ 
  end
  begin
     id 7 
     name rfemur
     direction -0.34202 -0.939693 0   
     length 7.33006   
     axis 0 0 -20   XYZ
    dof rx ry rz
    limits (-160.0 20.0)
           (-70.0 70.0)
           (-70.0 60.0)
  end
  begin
     id 8 
     name rtibia
     direction -0.34202 -0.939693 0   
     length 7.64926   
     axis 0 0 -20   XYZ
    dof rx
    limits (-10.0 170.0)
 end
 begin
     id 9 
     name rfoot
     direction -0.0688927 -0.189281 0.979503   
     length 2.20493  
     axis -90 -7.62852e-016 -20   XYZ
    dof rx rz
    limits (-45.0 90.0)
           (-20.0 70.0)
  end
  begin
     id 10 
     name rtoes
     direction -1.53567e-011 -4.21933e-011 1   
     length 1.10919   
     axis -90 -7.62852e-016 -20   XYZ
    dof rx
    limits (-90.0 20.0)
  end
  begin
     id 11 
     name lowerback
     direction -0.0167868 0.989873 -0.140959   
     length 2.14596   
     axis 0 0 0   XYZ
    dof rx ry rz
    limits (-20.0 45.0)
           (-30.0 30.0)
           (-30.0 30.0)
  end
  begin
     id 12 
     name upperback
     direction 0.0129109 0.998033 0.0613525   
     length 2.10457   
     axis 0 0 0   XYZ
    dof rx ry rz
    limits (-20.0 45.0)
           (-30.0 30.0)
           (-30.0 30.0)
  end
  begin
     id 13 
     name thorax
     direction 0.0177047 0.991119 0.131797   
     length 2.17652   
     axis 0 0 0   XYZ
    dof rx ry rz
    limits (-20.0 45.0)
           (-30.0 30.0)
           (-30.0 30.0)
  end
  begin
     id 14 
     name lowerneck
     direction -0.0336893 0.997548 0.0613464   
     length 1.8912   
     axis 0 0 0   XYZ
    dof rx ry rz
    limits (-20.0 45.0)
           (-30.0 30.0)
           (-30.0 30.0)
  end
  begin
     id 15 
     name upperneck
     direction 0.0435909 0.997179 -0.0611028   
     length 1.8829   
     axis 0 0 0   XYZ
    dof rx ry rz
    limits (-20.0 45.0)
           (-30.0 30.0)
           (-30.0 30.0)
  end
  begin
     id 16
     name head
     direction 0.0175076 0.999444 -0.0283782  
     length 1.93197  
     axis 0 0 0   XYZ
    dof rx ry rz
    limits (-20.0 45.0)
           (-30.0 30.0)
           (-30.0 30.0)
  end
  begin
     id 17 
     name lclavicle
     direction 0.919164 0.389875 0.0559876  
     length 3.60004  
     axis 0 0 0   XYZ
    dof ry rz
    limits (-20.0 10.0)
           (0.0 20.0)
  end
  begin
     id 18 
     name lhumerus
     direction 1 -4.48958e-011 6.89191e-027   
     length 5.43301   
     axis 180 -30 -90   XYZ
    dof rx ry rz
    limits (-60.0 90.0)
           (-90.0 90.0)
           (-90.0 90.0)
  end
  begin
     id 19
     name lradius
     direction 1 -4.4897e-011 3.24727e-027   
     length 3.15936   
     axis 180 -30 -90   XYZ
    dof rx
    limits (-10.0 170.0)
  end
  begin
     id 20
     name lwrist
     direction 1 -4.4897e-011 9.00228e-027   
     length 1.57968   
     axis -6.29373e-015 90 90   XYZ
    dof ry
    limits (-180.0 0.0)
 end
  begin
     id 21 
     name lhand
     direction 1 -4.48968e-011 1.80042e-026   
     length 0.712827   
     axis -1.14882e-014 90 90   XYZ
    dof rx rz
    limits (-90.0 90.0)
           (-45.0 45.0)
  end
  begin
     id 22 
     name lfingers
     direction 1 -4.49019e-011 3.60267e-026   
     length 0.574699   
     axis -2.29769e-014 90 90   XYZ
    dof rx
    limits (0.0 90.0)
  end
  begin
     id 23
     name lthumb
     direction 0.707107 -6.3498e-011 0.707107   
     length 0.825157   
     axis -90 45 5.37419e-014   XYZ
    dof rx rz
    limits (-45.0 45.0)
           (-45.0 45.0)
  end
  begin
     id 24 
     name rclavicle
     direction -0.890334 0.455305 -0.00132111   
     length 3.51494  
     axis 0 0 0   XYZ 
    dof ry rz
    limits (-10.0 20.0)
           (-20.0 0.0)
  end
  begin
     id 25 
     name rhumerus
     direction -1 -4.48967e-011 5.07175e-028  
     length 5.34194   
     axis 180 30 90   XYZ
    dof rx ry rz
    limits (-90.0 60.0)
           (-90.0 90.0)
           (-90.0 90.0)
  end
  begin
     id 26 
     name rradius
     direction -1 -4.48955e-011 3.30467e-027   
     length 3.19351   
     axis 180 30 90   XYZ
    dof rx
    limits (-10.0 170.0)
  end
  begin
     id 27 
     name rwrist
     direction -1 -4.48968e-011 9.00208e-027   
     length 1.59676   
     axis -6.29373e-015 -90 -90   XYZ
    dof ry
    limits (-180.0 0.0)
  end
  begin
     id 28
     name rhand
     direction -1 -4.49e-011 1.80099e-026   
     length 0.743862   
     axis -1.14882e-014 -90 -90   XYZ
    dof rx rz
    limits (-90.0 90.0)
           (-45.0 45.0)
  end
  begin
     id 29
     name rfingers
     direction -1 -4.49009e-011 3.6023e-026   
     length 0.599721   
     axis -2.29769e-014 -90 -90   XYZ
    dof rx
    limits (0.0 90.0)
  end
  begin
     id 30
     name rthumb
     direction -0.707107 -6.35025e-011 0.707107   
     length 0.861083   
     axis -90 -45 -5.37419e-014   XYZ
    dof rx rz
    limits (-45.0 45.0)
           (-45.0 45.0)
  end
:hierarchy
  begin
    root lhipjoint rhipjoint lowerback
    lhipjoint lfemur
    lfemur ltibia
    ltibia lfoot
    lfoot ltoes
    rhipjoint rfemur
    rfemur rtibia
    rtibia rfoot
    rfoot rtoes
    lowerback upperback
    upperback thorax
    thorax lowerneck lclavicle rclavicle
    lowerneck upperneck
    upperneck head
    lclavicle lhumerus
    lhumerus lradius
    lradius lwrist
    lwrist lhand lthumb
    lhand lfingers
    rclavicle rhumerus
    rhumerus rradius
    rradius rwrist
    rwrist rhand rthumb
    rhand rfingers
  end

#!OML:ASF H:\Martial Arts Walks\Project 1\Capture day 1\Session 1\male.ASF
:FULLY-SPECIFIED
:DEGREES
769
root -1.57608 14.283 18.9476 8.86496 13.4123 -6.13057
lowerback 20.1362 0.190012 -0.55313
upperback -1.38567 0.626915 3.84652
thorax -12.9942 0.512273 4.45603
lowerneck -4.21784 -4.34623 -8.31377
upperneck -0.682001 -5.49869 8.31114
head 1.0483 -2.66595 4.08134
rclavicle 5.91384e-015 2.48481e-014
rhumerus 29.2039 25.9559 -55.8976
rradius 39.8104
rwrist -0.282209
rhand -12.7621 -21.4592
rfingers 7.12502
rthumb 13.3225 -51.0134
lclavicle 5.91384e-015 2.48481e-014
lhumerus 99.6572 -55.1211 19.2315
lradius 112.945
lwrist 5.87698
lhand 3.99491 20.6234
lfingers 7.12502
lthumb 29.4108 48.3158
rfemur -47.7994 -14.0338 31.1788
rtibia 77.0402
rfoot -28.2401 -22.6312
rtoes -14.3501
lfemur -43.7022 9.33317 -15.9624
ltibia 108.86
lfoot -6.1454 11.4052
ltoes -9.10376
770
root -1.52014 14.2735 19.1245 8.49268 12.1106 -6.46323
lowerback 20.3991 0.198203 -0.22909
upperback -1.42617 0.735371 3.93871
thorax -13.2008 0.547453 4.34745
lowerneck -4.42425 -3.9445 -8.28991
upperneck -0.21162 -4.95966 7.88489
head 1.17342 -2.39727 3.93983
rclavicle -8.10048e-015 2.5842e-014
rhumerus 30.4027 29.0682 -54.4047
rradius 40.8479
rwrist -0.182437
rhand -12.76 -20.9653
rfingers 7.12502
rthumb 13.3245 -50.5193
lclavicle -8.10048e-015 2.5842e-014
lhumerus 100.992 -54.1117 18.2149
lradius 115.089
lwrist 3.96846
lhand 4.48074 19.0472
lfingers 7.12502
lthumb 29.8746 46.6571
rfemur -46.4766 -13.5285 31.1087
rtibia 76.873
rfoot -28.9082 -22.4534
rtoes -14.7927
lfemur -46.9771 9.4667 -17.895
ltibia 109.207
lfoot -7.07366 11.3869
ltoes -9.43676
771
root -1.45951 14.2602 19.3059 8.10588 10.6287 -6.75639
lowerback 20.677 0.242152 0.0880628
upperback -1.46643 0.889437 4.00932
thorax -13.4185 0.602259 4.20359
lowerneck -4.6469 -3.51958 -8.21478
upperneck 0.312264 -4.3886 7.38199
head 1.31474 -2.11511 3.76415
rclavicle 1.95803e-014 -4.45278e-014
rhumerus 31.6839 32.3185 -52.5617
rradius 42.1897
rwrist 0.0862668
rhand -12.4917 -20.4491
rfingers 7.12502
rthumb 13.5831 -49.986
lclavicle 1.95803e-014 -4.45278e-014
lhumerus 101.301 -53.3369 17.8175
lradius 117.103
lwrist 2.21198
lhand 5.04071 17.4158
lfingers 7.12502
lthumb 30.4088 44.9282
rfemur -45.1206 -12.9815 30.9559
rtibia 76.7372
rfoot -29.6066 -22.2139
rtoes -15.227
lfemur -50.1113 9.46901 -19.6761
ltibia 109.044
lfoot -7.90224 11.047
ltoes -10.0384
772
root -1.39467 14.2446 19.4936 7.70136 8.95824 -7.01456
lowerback 20.9243 0.332038 0.379326
upperback -1.48623 1.09543 4.05693
thorax -13.5971 0.679778 4.02933
lowerneck -4.89641 -3.07316 -8.08772
upperneck 0.887652 -3.78758 6.85825
head 1.47694 -1.82001 3.57469
rclavicle 1.10325e-014 2.20651e-014
rhumerus 33.1554 35.5943 -50.4301
rradius 43.7592
rwrist 0.60026
rhand -11.8932 -19.9243
rfingers 7.12502
rthumb 14.1599 -49.4218
lclavicle 1.10325e-014 2.20651e-014
lhumerus 100.627 -52.796 17.9661
lradius 118.947
lwrist 0.641364
lhand 5.5782 15.6521
lfingers 7.12502
lthumb 30.9213 43.0686
rfemur -43.7149 -12.3769 30.7228
rtibia 76.616
rfoot -30.3184 -21.9239
rtoes -15.6657
lfemur -53.0507 9.41255 -21.211
ltibia 108.401
lfoot -8.69051 10.5142
ltoes -10.7606
773
root -1.32595 14.2276 19.6875 7.28705 7.09528 -7.25806
lowerback 21.1554 0.480632 0.663966
upperback -1.49787 1.37479 4.07712
thorax -13.7591 0.788601 3.80161
lowerneck -5.1267 -2.62471 -7.85399
upperneck 1.46793 -3.18764 6.308
head 1.63841 -1.52781 3.3588
rclavicle 1.68967e-015 -3.65764e-014
rhumerus 34.7989 38.8183 -48.0895
rradius 45.5406
rwrist 1.40289
rhand -10.9822 -19.3665
rfingers 7.12502
rthumb 15.0376 -48.8004
lclavicle 1.68967e-015 -3.65764e-014
lhumerus 98.9987 -52.4985 18.6436
lradius 120.571
lwrist -0.775667
lhand 5.99706 13.6963
lfingers 7.12502
lthumb 31.3205 41.0362
rfemur -42.268 -11.7065 30.4393
rtibia 76.4925
rfoot -31.0208 -21.5891
rtoes -16.0983
lfemur -55.7844 9.38389 -22.4198
ltibia 107.326
lfoot -9.48439 9.93529
ltoes -11.6481
774
root -1.25399 14.2115 19.888 6.87549 5.05099 -7.4875
lowerback 21.3512 0.691837 0.935846
upperback -1.49879 1.72979 4.06915
thorax -13.889 0.929941 3.52143
lowerneck -5.34036 -2.18639 -7.51915
upperneck 2.04454 -2.60628 5.7638
head 1.80033 -1.24607 3.12867
rclavicle -3.37934e-015 -7.35503e-015
rhumerus 36.6656 41.9216 -45.5999
rradius 47.4836
rwrist 2.50843
rhand -9.71115 -18.7629
rfingers 7.12502
rthumb 16.2618 -48.1009
lclavicle -3.37934e-015 -7.35503e-015
lhumerus 96.3678 -52.4353 19.9455
lradius 121.924
lwrist -2.08661
lhand 6.68303 11.2572
lfingers 7.12502
lthumb 31.9739 38.4683
rfemur -40.7867 -10.9767 30.1142
rtibia 76.3475
rfoot -31.7246 -21.1914
rtoes -16.4322
lfemur -58.2914 9.44966 -23.2671
ltibia 105.853
lfoot -10.2175 9.40938
ltoes -12.4521
775
root -1.17864 14.1985 20.095 6.48966 2.83825 -7.70248
lowerback 21.5054 0.961406 1.20489
upperback -1.49769 2.1567 4.03132
thorax -13.9909 1.10146 3.1825
lowerneck -5.533 -1.76737 -7.07701
upperneck 2.60555 -2.0571 5.22068
head 1.95937 -0.980846 2.88116
rclavicle 5.41688e-015 -2.08724e-014
rhumerus 38.6234 44.8651 -43.0883
rradius 49.6589
rwrist 3.9556
rhand -8.0739 -18.0641
rfingers 7.12502
rthumb 17.8377 -47.266
lclavicle 5.41688e-015 -2.08724e-014
lhumerus 92.7079 -52.5606 21.9214
lradius 122.965
lwrist -3.51704
lhand 7.64265 8.24401
lfingers 7.12502
lthumb 32.8872 35.268
rfemur -39.2962 -10.2013 29.7526
rtibia 76.169
rfoot -32.4322 -20.7105
rtoes -16.6084
lfemur -60.5607 9.65747 -23.7473
ltibia 104.019
lfoot -10.8221 9.01522
ltoes -12.9345
776
root -1.10068 14.1892 20.3082 6.15362 0.466092 -7.90721
lowerback 21.6107 1.28721 1.47214
upperback -1.50611 2.65375 3.97001
thorax -14.072 1.30289 2.79285
lowerneck -5.68302 -1.36515 -6.57012
upperneck 3.13273 -1.53669 4.70496
head 2.10709 -0.729721 2.63345
rclavicle -4.17448e-015 -1.27222e-014
rhumerus 40.6554 47.6292 -40.5778
rradius 52.095
rwrist 5.69003
rhand -6.05304 -17.2156
rfingers 7.12502
rthumb 19.7814 -46.229
lclavicle -4.17448e-015 -1.27222e-014
lhumerus 87.9802 -52.8044 24.6359
lradius 123.72
lwrist -5.0789
lhand 9.03644 4.7046
lfingers 7.12502
lthumb 34.2119 31.4411
rfemur -37.8405 -9.386 29.3705
rtibia 75.9532
rfoot -33.0849 -20.2157
rtoes -16.7234
lfemur -62.6025 10.0523 -23.8653
ltibia 101.861
lfoot -11.2313 8.78773
ltoes -13.0703
777
root -1.02007 14.1839 20.5277 5.87999 -2.04623 -8.07568
lowerback 21.6734 1.65585 1.72922
upperback -1.53468 3.20046 3.87796
thorax -14.1458 1.52537 2.35677
lowerneck -5.81002 -0.974096 -6.03581
upperneck 3.64328 -1.03488 4.22688
head 2.25288 -0.487141 2.39619
rclavicle -1.60519e-014 -1.90833e-014
rhumerus 42.4469 50.1973 -38.2361
rradius 54.9941
rwrist 7.74607
rhand -3.66238 -16.1263
rfingers 7.12502
rthumb 22.0781 -44.8859
lclavicle -1.60519e-014 -1.90833e-014
lhumerus 82.1474 -53.0656 28.1263
lradius 124.298
lwrist -6.39837
lhand 11.2173 1.04823
lfingers 7.12502
lthumb 36.2799 27.2955
rfemur -36.4363 -8.55413 28.9322
rtibia 75.7108
rfoot -33.718 -19.669
rtoes -16.6206
lfemur -64.3917 10.6342 -23.6672
ltibia 99.4021
lfoot -11.4208 8.7136
ltoes -12.8477
778
root -0.937511 14.1819 20.7539 5.68574 -4.66559 -8.18195
lowerback 21.6541 2.05528 1.93728
upperback -1.57484 3.76981 3.76577
thorax -14.1797 1.76073 1.91944
lowerneck -5.92742 -0.57864 -5.50019
upperneck 4.12666 -0.527658 3.77628
head 2.39442 -0.241261 2.17119
rclavicle -3.29486e-014 -7.95139e-015
rhumerus 43.9582 52.5503 -36.1279
rradius 58.3598
rwrist 10.0805
rhand -0.955173 -14.7293
rfingers 7.12502
rthumb 24.6752 -43.1583
lclavicle -3.29486e-014 -7.95139e-015
lhumerus 75.3375 -53.2027 32.232
lradius 124.764
lwrist -6.92418
lhand 13.793 -2.06347
lfingers 7.12502
lthumb 38.7143 23.5378
rfemur -35.1248 -7.73146 28.4077
rtibia 75.4518
rfoot -34.2812 -19.1434
rtoes -16.4579
lfemur -65.9187 11.3798 -23.1995
ltibia 96.6588
lfoot -11.3802 8.73656
ltoes -12.3986
779
root -0.853871 14.183 20.9865 5.57021 -7.36539 -8.20746
lowerback 21.5709 2.47105 2.06045
upperback -1.63957 4.33584 3.64135
thorax -14.2029 2.0008 1.52046
lowerneck -6.02887 -0.162659 -4.98069
upperneck 4.59211 0.00825299 3.33662
head 2.53255 0.0187068 1.95661
rclavicle 4.65156e-014 -2.40529e-014
rhumerus 44.87 54.7321 -34.4802
rradius 62.2984
rwrist 12.6214
rhand 1.90611 -12.9565
rfingers 7.12502
rthumb 27.4148 -40.982
lclavicle 4.65156e-014 -2.40529e-014
lhumerus 67.6904 -53.1439 36.7619
lradius 125.117
lwrist -6.22309
lhand 16.2785 -4.15929
lfingers 7.12502
lthumb 41.0537 20.74
rfemur -33.9281 -6.9302 27.7742
rtibia 75.1805
rfoot -34.7552 -18.693
rtoes -16.2896
lfemur -67.1543 12.2679 -22.4991
ltibia 93.6375
lfoot -11.0628 8.75209
ltoes -11.685
